<svg xmlns="http://www.w3.org/2000/svg" viewBox="0 0 900 900" role="img" aria-labelledby="title desc">
  <title id="title">Square seller system</title>
  <desc id="desc">A Square-inspired product system connecting point of sale, payments, online checkout, cashflow and reporting.</desc>
  <rect width="900" height="900" fill="#f2f2f2"/>
  <rect x="86" y="84" width="728" height="732" rx="34" fill="#ffffff" stroke="#000000" stroke-width="4"/>
  <rect x="132" y="132" width="210" height="210" rx="26" fill="#000000"/>
  <rect x="178" y="178" width="118" height="118" rx="18" fill="none" stroke="#ffffff" stroke-width="28"/>
  <rect x="386" y="132" width="382" height="96" rx="22" fill="#006aff"/>
  <rect x="420" y="162" width="168" height="14" rx="7" fill="#ffffff" opacity=".92"/>
  <rect x="420" y="190" width="258" height="14" rx="7" fill="#ffffff" opacity=".58"/>
  <rect x="386" y="266" width="170" height="170" rx="24" fill="#f2f2f2" stroke="#000000" stroke-width="3"/>
  <path d="M429 351h84m-42-42v84" stroke="#000000" stroke-width="17" stroke-linecap="round"/>
  <rect x="598" y="266" width="170" height="170" rx="24" fill="#f2f2f2" stroke="#000000" stroke-width="3"/>
  <path d="M647 325h70v52h-70z" fill="none" stroke="#000000" stroke-width="13" stroke-linejoin="round"/>
  <path d="M656 325v-18h52v18" fill="none" stroke="#000000" stroke-width="13" stroke-linecap="round"/>
  <rect x="132" y="486" width="636" height="112" rx="26" fill="#000000"/>
  <circle cx="188" cy="542" r="25" fill="#00c853"/>
  <rect x="240" y="516" width="262" height="16" rx="8" fill="#ffffff"/>
  <rect x="240" y="552" width="420" height="16" rx="8" fill="#ffffff" opacity=".56"/>
  <rect x="132" y="638" width="190" height="96" rx="22" fill="#f2f2f2" stroke="#000000" stroke-width="3"/>
  <rect x="169" y="686" width="116" height="16" rx="8" fill="#000000"/>
  <rect x="356" y="638" width="190" height="96" rx="22" fill="#eaf3ff" stroke="#006aff" stroke-width="3"/>
  <path d="M405 700l36-42 28 30 30-50" fill="none" stroke="#006aff" stroke-width="12" stroke-linecap="round" stroke-linejoin="round"/>
  <rect x="580" y="638" width="188" height="96" rx="22" fill="#000000"/>
  <rect x="620" y="674" width="108" height="14" rx="7" fill="#ffffff"/>
  <rect x="620" y="700" width="70" height="14" rx="7" fill="#ffffff" opacity=".56"/>
</svg>
